<?xml version="1.0" encoding="UTF-8" standalone="no"?>
<!DOCTYPE svg PUBLIC "-//W3C//DTD SVG 1.1//EN" "http://www.w3.org/Graphics/SVG/1.1/DTD/svg11.dtd">
<svg width="100%" height="100%" viewBox="0 0 446 170" version="1.1" xmlns="http://www.w3.org/2000/svg" xmlns:xlink="http://www.w3.org/1999/xlink" xml:space="preserve" xmlns:serif="http://www.serif.com/" style="fill-rule:evenodd;clip-rule:evenodd;stroke-linejoin:round;stroke-miterlimit:2;">
    <g transform="matrix(1,0,0,1,-501.75,0)">
        <g transform="matrix(1,0,0,1,501.75,0)">
            <rect id="P치gina-2" serif:id="P치gina 2" x="0" y="0" width="446" height="170" style="fill:none;"/>
            <g id="P치gina-21" serif:id="P치gina 2">
                <g id="Capa-1" serif:id="Capa 1">
                    <g transform="matrix(1,0,0,1,161.043,57.9549)">
                        <path d="M0,81.424C-3.124,81.429 -5.674,78.887 -5.679,75.763L-5.751,29.456L-19.953,57.971C-20.847,59.922 -22.742,61.117 -24.994,61.121C-27.102,61.124 -28.979,59.972 -30.026,58.03L-44.235,29.559L-44.163,75.823C-44.158,78.947 -46.697,81.497 -49.822,81.502C-52.888,81.507 -55.389,78.965 -55.394,75.841L-55.502,5.591C-55.353,2.46 -52.911,0.005 -49.95,0C-47.872,-0.003 -45.84,1.255 -44.895,3.136L-25.022,42.933L-5.172,3.074C-4.235,1.19 -2.202,-0.075 -0.128,-0.078C3.201,-0.083 5.44,2.843 5.445,5.583L5.555,75.745C5.56,78.869 3.067,81.419 0,81.424" style="fill:rgb(0,130,167);fill-rule:nonzero;"/>
                    </g>
                    <g transform="matrix(1,0,0,1,193.91,84.0801)">
                        <path d="M0,55.247C-11.018,55.265 -19.999,46.362 -20.016,35.399L-20.041,19.908C-20.058,8.947 -11.104,0.017 -0.087,-0.001C10.872,-0.018 19.803,8.982 19.821,20.058L19.833,27.487C19.837,30.554 17.296,33.05 14.17,33.055L-8.681,33.091L-8.677,35.382C-8.67,40.154 -4.782,44.021 -0.018,44.015C3.295,44.009 6.394,42.012 7.693,39.048L7.732,38.968C8.732,36.955 10.729,35.699 12.933,35.696C13.727,35.694 14.498,35.858 15.227,36.181L15.299,36.217C18.058,37.591 19.234,40.885 17.978,43.714C14.791,50.714 7.736,55.235 0,55.247M-8.698,21.857L8.485,21.831L8.482,19.864C8.475,15.095 4.639,11.227 -0.069,11.235C-4.833,11.243 -8.709,15.122 -8.702,19.891L-8.698,21.857Z" style="fill:rgb(0,130,167);fill-rule:nonzero;"/>
                    </g>
                    <g transform="matrix(1,0,0,1,254.095,57.7664)">
                        <path d="M0,81.466C-2.105,81.47 -3.95,80.316 -4.933,78.609C-7.846,80.494 -11.042,81.484 -14.312,81.488C-25.271,81.506 -34.201,72.554 -34.219,61.537L-34.243,46.151C-34.26,35.19 -25.358,26.258 -14.397,26.241C-11.365,26.237 -8.429,27.028 -5.755,28.551L-5.791,5.535C-5.796,2.467 -3.253,-0.03 -0.128,-0.035C2.888,-0.04 5.436,2.5 5.44,5.518L5.551,75.787C5.556,78.911 3.065,81.462 0,81.466M-14.38,37.477C-19.149,37.485 -23.018,41.363 -23.01,46.133L-22.985,61.52C-22.979,66.284 -19.098,70.155 -14.329,70.148C-10.341,70.142 -5.693,68.21 -5.701,62.785L-5.729,44.814C-5.738,39.388 -10.393,37.471 -14.38,37.477" style="fill:rgb(0,130,167);fill-rule:nonzero;"/>
                    </g>
                    <g transform="matrix(1,0,0,1,274.713,83.9532)">
                        <path d="M0,55.247C-3.127,55.252 -5.676,52.71 -5.681,49.586L-5.75,5.683C-5.755,2.554 -3.214,0.005 -0.087,-0.001C2.98,-0.005 5.48,2.536 5.485,5.665L5.554,49.568C5.559,52.692 3.067,55.242 0,55.247" style="fill:rgb(0,130,167);fill-rule:nonzero;"/>
                    </g>
                    <g transform="matrix(1,0,0,1,323.431,11.0211)">
                        <path d="M0,129.557C-2.424,129.561 -4.674,128.541 -6.687,126.536C-8.438,124.793 -10.371,121.96 -12.607,117.885C-15.449,112.714 -17.921,107.684 -19.988,102.894C-23.994,110.373 -26.646,117.965 -27.874,125.507L-27.944,125.927C-28.04,126.513 -28.449,126.991 -29.009,127.17L-36.233,129.514C-36.762,129.691 -37.343,129.569 -37.761,129.201C-38.181,128.826 -38.369,128.269 -38.262,127.717L-14.7,6.494C-14.604,6.002 -14.278,5.586 -13.829,5.374L-2.757,0.124C-2.215,-0.134 -1.571,-0.059 -1.101,0.319C-0.629,0.695 -0.417,1.307 -0.553,1.895L-0.87,3.302L-21.144,92.109C-19.932,90.466 -18.643,88.843 -17.281,87.259C-14.809,84.387 -12.38,82 -10.068,80.163C-7.052,77.76 -3.952,75.93 -0.857,74.736C2.25,73.537 5.769,72.838 9.606,72.643L10.529,72.596C11.026,72.557 11.491,72.78 11.812,73.155C12.124,73.528 12.247,74.031 12.138,74.512L10.226,83.086C10.041,83.919 9.219,84.452 8.386,84.287L7.713,84.153C5.727,83.757 4.718,83.675 4.219,83.676C-1.609,83.686 -7.206,86.594 -12.418,92.329C-10.195,98.128 -7.83,103.44 -5.37,108.118C-3.885,111.016 -2.579,113.352 -1.478,115.075C-0.216,117.04 0.693,117.996 1.233,118.455C1.761,118.896 2.241,119.14 2.609,119.139C3.488,119.138 5.534,118.533 9.36,114.494L10.535,113.165C10.832,112.829 11.264,112.637 11.712,112.637L11.715,112.637C12.171,112.636 12.604,112.832 12.901,113.177L14.955,115.536C15.459,116.118 15.472,116.979 14.98,117.573L14.603,118.03C8.03,125.996 3.526,129.551 0,129.557" style="fill:rgb(0,130,167);fill-rule:nonzero;"/>
                    </g>
                    <g transform="matrix(1,0,0,1,361.15,83.8175)">
                        <path d="M0,55.247C-11.021,55.265 -20,46.363 -20.018,35.4L-20.042,19.909C-20.059,8.948 -11.108,0.017 -0.087,0C10.873,-0.018 19.8,8.982 19.817,20.059L19.829,27.487C19.834,30.555 17.294,33.051 14.166,33.056L-8.675,33.091L-8.672,35.382C-8.664,40.154 -4.784,44.022 -0.018,44.015C3.288,44.01 6.387,42.013 7.691,39.049L7.73,38.969C8.732,36.956 10.722,35.7 12.928,35.696C13.722,35.695 14.494,35.858 15.224,36.181L15.298,36.218C18.055,37.591 19.23,40.886 17.976,43.714C14.79,50.715 7.734,55.235 0,55.247M-8.692,21.858L8.479,21.831L8.477,19.864C8.469,15.096 4.634,11.228 -0.069,11.235C-4.835,11.243 -8.703,15.122 -8.696,19.892L-8.692,21.858Z" style="fill:rgb(0,130,167);fill-rule:nonzero;"/>
                    </g>
                    <g transform="matrix(1,0,0,1,421.68,83.7777)">
                        <path d="M0,55.192C-3.126,55.197 -5.672,52.709 -5.677,49.638L-5.724,19.832C-5.731,14.987 -9.531,11.195 -14.381,11.203C-18.682,11.21 -23.014,13.487 -23.006,18.566L-22.957,49.666C-22.952,52.677 -25.498,55.232 -28.513,55.237C-31.641,55.242 -34.192,52.753 -34.197,49.683L-34.267,5.564C-34.271,2.496 -31.727,-0.006 -28.599,-0.011C-26.621,-0.014 -24.845,1.083 -23.855,2.685C-21.204,0.962 -17.84,-0.028 -14.398,-0.034C-3.438,-0.05 5.493,8.852 5.511,19.813L5.557,49.621C5.562,52.632 3.014,55.187 0,55.192" style="fill:rgb(0,130,167);fill-rule:nonzero;"/>
                    </g>
                    <g transform="matrix(1,0,0,1,114.37,148.548)">
                        <path d="M0,10.36L-1.515,10.363C-1.63,10.363 -1.68,10.314 -1.68,10.198L-1.542,3.777L-3.395,8.85C-3.443,8.901 -3.493,8.95 -3.542,8.95L-4.382,8.951C-4.448,8.951 -4.498,8.919 -4.53,8.852L-6.399,3.785L-6.241,10.205C-6.241,10.321 -6.29,10.37 -6.405,10.371L-7.936,10.373C-8.052,10.373 -8.101,10.324 -8.101,10.208L-8.117,0.164C-8.117,0.049 -8.068,0 -7.952,0L-6.536,-0.002C-6.487,0.013 -6.438,0.047 -6.388,0.095L-3.975,6.613L-1.581,0.088C-1.531,0.039 -1.482,0.006 -1.432,-0.01L-0.016,-0.013C0.099,-0.013 0.149,0.036 0.149,0.151L0.165,10.195C0.165,10.311 0.115,10.36 0,10.36" style="fill:rgb(0,130,167);fill-rule:nonzero;"/>
                    </g>
                    <g transform="matrix(1,0,0,1,126.987,148.526)">
                        <path d="M0,10.363L-5.812,10.372C-5.928,10.373 -5.977,10.323 -5.977,10.208L-5.993,0.164C-5.993,0.049 -5.944,0 -5.828,-0.001L-0.016,-0.01C0.083,-0.01 0.149,0.039 0.149,0.154L0.151,1.554C0.151,1.67 0.102,1.718 -0.014,1.719L-3.933,1.725C-4.047,1.725 -4.098,1.774 -4.097,1.89L-4.094,4.08C-4.094,4.194 -4.043,4.244 -3.929,4.243L-0.718,4.238C-0.603,4.238 -0.553,4.289 -0.552,4.404L-0.55,5.802C-0.55,5.919 -0.6,5.968 -0.715,5.968L-3.926,5.973C-4.041,5.973 -4.091,6.022 -4.091,6.138L-4.087,8.476C-4.087,8.592 -4.037,8.64 -3.922,8.64L-0.002,8.634C0.096,8.634 0.163,8.684 0.163,8.799L0.165,10.198C0.165,10.314 0.115,10.363 0,10.363" style="fill:rgb(0,130,167);fill-rule:nonzero;"/>
                    </g>
                    <g transform="matrix(1,0,0,1,137.002,148.503)">
                        <path d="M0,10.37L-3.705,10.376C-3.82,10.376 -3.869,10.327 -3.869,10.211L-3.885,0.167C-3.885,0.052 -3.836,0.003 -3.721,0.003L-0.016,-0.003C1.861,-0.006 3.048,1.178 3.051,3.056L3.057,7.304C3.061,9.18 1.877,10.367 0,10.37M1.173,2.91C1.172,2.267 0.628,1.724 -0.013,1.726L-1.824,1.728C-1.939,1.729 -1.989,1.778 -1.989,1.894L-1.979,8.48C-1.979,8.595 -1.929,8.644 -1.813,8.643L-0.002,8.641C0.655,8.64 1.182,8.112 1.181,7.454L1.173,2.91Z" style="fill:rgb(0,130,167);fill-rule:nonzero;"/>
                    </g>
                    <g transform="matrix(1,0,0,1,147.89,148.486)">
                        <path d="M0,10.37L-1.564,10.373C-1.68,10.373 -1.729,10.324 -1.729,10.208L-1.745,0.164C-1.746,0.049 -1.696,0 -1.581,0L-0.017,-0.002C0.083,-0.003 0.148,0.046 0.149,0.161L0.165,10.205C0.165,10.321 0.115,10.37 0,10.37" style="fill:rgb(0,130,167);fill-rule:nonzero;"/>
                    </g>
                    <g transform="matrix(1,0,0,1,160.945,150.286)">
                        <path d="M0,6.738C0,6.903 -0.229,7.382 -0.788,7.958C-1.281,8.468 -1.989,8.717 -2.911,8.719L-3.718,8.72C-5.579,8.723 -6.783,7.555 -6.785,5.809L-6.793,0.936C-6.796,-0.81 -5.579,-1.98 -3.734,-1.983L-2.928,-1.984C-2.187,-1.985 -1.577,-1.821 -1.067,-1.444C-0.407,-0.968 -0.011,-0.227 -0.01,-0.046C-0.01,0.02 -0.042,0.052 -0.108,0.086L-1.54,0.798C-1.573,0.813 -1.606,0.813 -1.622,0.813C-1.721,0.813 -1.754,0.714 -1.854,0.533C-2.134,0.023 -2.448,-0.255 -2.925,-0.255L-3.732,-0.253C-4.391,-0.252 -4.917,0.274 -4.916,0.933L-4.908,5.806C-4.907,6.466 -4.379,6.992 -3.72,6.991L-2.914,6.989C-2.437,6.989 -2.14,6.725 -1.861,6.198C-1.763,6.001 -1.697,5.885 -1.614,5.885C-1.582,5.885 -1.565,5.885 -1.532,5.9L-0.098,6.607C-0.032,6.638 0,6.672 0,6.738" style="fill:rgb(0,130,167);fill-rule:nonzero;"/>
                    </g>
                    <g transform="matrix(1,0,0,1,168.345,148.453)">
                        <path d="M0,10.371L-1.564,10.373C-1.68,10.373 -1.729,10.324 -1.729,10.208L-1.745,0.164C-1.746,0.05 -1.696,0 -1.581,0L-0.017,-0.002C0.083,-0.002 0.148,0.047 0.149,0.161L0.165,10.205C0.165,10.321 0.115,10.37 0,10.371" style="fill:rgb(0,130,167);fill-rule:nonzero;"/>
                    </g>
                    <g transform="matrix(1,0,0,1,181.455,148.44)">
                        <path d="M0,10.364L-1.367,10.366L-1.515,10.284L-4.9,3.671L-4.808,10.206C-4.808,10.322 -4.858,10.371 -4.973,10.372L-6.504,10.374C-6.62,10.374 -6.668,10.325 -6.668,10.209L-6.684,0.165C-6.684,0.051 -6.636,0.001 -6.521,0.001L-5.137,-0.001L-4.989,0.081L-1.62,6.76L-1.696,0.157C-1.696,0.042 -1.646,-0.007 -1.531,-0.007L-0.016,-0.009C0.082,-0.01 0.149,0.04 0.149,0.154L0.165,10.198C0.165,10.314 0.115,10.363 0,10.364" style="fill:rgb(0,130,167);fill-rule:nonzero;"/>
                    </g>
                    <g transform="matrix(1,0,0,1,194.757,148.573)">
                        <path d="M0,10.062C0,10.161 -0.066,10.209 -0.181,10.209L-1.844,10.212C-1.943,10.212 -1.992,10.18 -2.008,10.098L-2.506,8.37C-2.522,8.288 -2.571,8.272 -2.67,8.272L-5.025,8.276C-5.124,8.276 -5.173,8.291 -5.189,8.374L-5.681,10.104C-5.697,10.186 -5.763,10.218 -5.845,10.219L-7.491,10.221C-7.607,10.221 -7.673,10.172 -7.673,10.074C-7.673,10.057 -7.656,10.041 -7.656,10.007L-4.61,-0.041C-4.577,-0.125 -4.544,-0.156 -4.445,-0.157L-3.259,-0.159C-3.177,-0.159 -3.128,-0.126 -3.095,-0.042L-0.016,9.996C-0.016,10.029 0,10.044 0,10.062M-3.631,4.157C-3.648,4.058 -3.715,3.76 -3.814,3.25L-3.864,3.25C-3.978,3.761 -4.043,4.059 -4.06,4.157L-4.616,6.331C-4.616,6.348 -4.633,6.38 -4.633,6.397C-4.633,6.496 -4.566,6.544 -4.452,6.544L-3.249,6.542C-3.134,6.542 -3.068,6.494 -3.068,6.394C-3.068,6.377 -3.085,6.345 -3.085,6.329L-3.631,4.157Z" style="fill:rgb(0,130,167);fill-rule:nonzero;"/>
                    </g>
                    <g transform="matrix(1,0,0,1,208.875,148.39)">
                        <path d="M0,10.37L-1.564,10.373C-1.68,10.373 -1.729,10.324 -1.729,10.208L-1.745,0.164C-1.745,0.05 -1.696,0 -1.581,0L-0.017,-0.002C0.083,-0.003 0.148,0.046 0.149,0.161L0.165,10.205C0.165,10.321 0.115,10.37 0,10.37" style="fill:rgb(0,130,167);fill-rule:nonzero;"/>
                    </g>
                    <g transform="matrix(1,0,0,1,221.984,148.377)">
                        <path d="M0,10.362L-1.366,10.365L-1.515,10.283L-4.9,3.669L-4.808,10.205C-4.808,10.321 -4.858,10.37 -4.973,10.37L-6.504,10.373C-6.619,10.373 -6.668,10.324 -6.668,10.208L-6.684,0.164C-6.684,0.049 -6.635,-0 -6.52,-0L-5.137,-0.002L-4.989,0.079L-1.62,6.759L-1.696,0.156C-1.696,0.041 -1.646,-0.008 -1.531,-0.008L-0.016,-0.01C0.083,-0.011 0.149,0.038 0.149,0.153L0.165,10.197C0.165,10.313 0.115,10.362 0,10.362" style="fill:rgb(0,130,167);fill-rule:nonzero;"/>
                    </g>
                    <g transform="matrix(1,0,0,1,233.715,156.997)">
                        <path d="M0,-6.92L-1.795,-6.917C-1.91,-6.917 -1.96,-6.868 -1.96,-6.752L-1.946,1.561C-1.946,1.679 -1.995,1.727 -2.11,1.727L-3.658,1.729C-3.773,1.729 -3.822,1.682 -3.822,1.564L-3.836,-6.749C-3.836,-6.865 -3.886,-6.914 -4.002,-6.914L-5.796,-6.911C-5.912,-6.911 -5.961,-6.96 -5.961,-7.075L-5.963,-8.475C-5.964,-8.59 -5.914,-8.639 -5.799,-8.639L-0.003,-8.649C0.096,-8.649 0.162,-8.6 0.163,-8.484L0.165,-7.084C0.165,-6.97 0.115,-6.92 0,-6.92" style="fill:rgb(0,130,167);fill-rule:nonzero;"/>
                    </g>
                    <g transform="matrix(1,0,0,1,245.473,148.339)">
                        <path d="M0,10.364L-5.812,10.373C-5.928,10.373 -5.978,10.324 -5.978,10.208L-5.993,0.164C-5.993,0.05 -5.944,0 -5.828,0L-0.017,-0.009C0.083,-0.009 0.148,0.04 0.149,0.154L0.151,1.555C0.151,1.671 0.102,1.719 -0.014,1.719L-3.933,1.726C-4.048,1.726 -4.098,1.775 -4.098,1.891L-4.094,4.08C-4.094,4.195 -4.044,4.244 -3.929,4.244L-0.718,4.239C-0.603,4.239 -0.553,4.29 -0.553,4.405L-0.55,5.803C-0.55,5.92 -0.6,5.968 -0.715,5.968L-3.926,5.974C-4.041,5.974 -4.091,6.023 -4.091,6.139L-4.087,8.477C-4.087,8.593 -4.037,8.641 -3.922,8.641L-0.003,8.635C0.097,8.635 0.162,8.684 0.162,8.8L0.165,10.198C0.165,10.314 0.115,10.364 0,10.364" style="fill:rgb(0,130,167);fill-rule:nonzero;"/>
                    </g>
                    <g transform="matrix(1,0,0,1,257.398,158.317)">
                        <path d="M0,-9.627C0.643,-9.167 1.039,-8.427 1.039,-8.23C1.039,-8.18 1.007,-8.13 0.94,-8.097L-0.49,-7.386C-0.523,-7.37 -0.557,-7.37 -0.573,-7.37C-0.672,-7.369 -0.704,-7.469 -0.804,-7.65C-1.085,-8.16 -1.398,-8.439 -1.876,-8.438L-2.962,-8.437C-3.621,-8.435 -4.147,-7.908 -4.146,-7.249L-4.139,-2.376C-4.138,-1.717 -3.609,-1.191 -2.951,-1.192L-2.144,-1.193C-1.485,-1.194 -0.976,-1.705 -0.977,-2.381L-0.978,-3.154C-0.978,-3.27 -1.044,-3.319 -1.143,-3.319L-2.691,-3.316C-2.806,-3.316 -2.855,-3.365 -2.855,-3.481L-2.857,-4.881C-2.857,-4.996 -2.809,-5.045 -2.693,-5.046L0.747,-5.051C0.863,-5.051 0.913,-5.002 0.913,-4.887L0.917,-2.384C0.92,-0.638 -0.297,0.534 -2.141,0.537L-2.948,0.538C-4.809,0.541 -6.013,-0.627 -6.016,-2.373L-6.023,-7.246C-6.026,-8.992 -4.809,-10.162 -2.965,-10.165L-1.879,-10.167C-1.121,-10.168 -0.511,-9.988 0,-9.627" style="fill:rgb(0,130,167);fill-rule:nonzero;"/>
                    </g>
                    <g transform="matrix(1,0,0,1,271.463,148.435)">
                        <path d="M0,10.095C0,10.178 -0.049,10.227 -0.165,10.227L-1.859,10.23C-1.909,10.23 -1.959,10.197 -2.008,10.115L-3.463,5.935L-3.596,5.836L-5.062,5.838C-5.177,5.839 -5.226,5.888 -5.226,6.004L-5.219,10.07C-5.219,10.186 -5.269,10.235 -5.384,10.235L-6.947,10.238C-7.063,10.238 -7.112,10.189 -7.113,10.073L-7.129,0.03C-7.129,-0.086 -7.08,-0.134 -6.964,-0.134L-3.259,-0.14C-1.382,-0.143 -0.195,1.039 -0.192,2.917L-0.191,3.081C-0.19,3.856 -0.585,4.482 -0.914,4.844C-1.21,5.125 -1.588,5.324 -1.588,5.471L-1.588,5.489L-0.016,10.013C0,10.045 0,10.078 0,10.095M-2.069,2.772C-2.07,2.129 -2.614,1.587 -3.256,1.588L-5.068,1.591C-5.184,1.591 -5.232,1.64 -5.231,1.756L-5.229,3.945C-5.229,4.061 -5.18,4.11 -5.064,4.11L-3.252,4.107C-2.61,4.106 -2.068,3.578 -2.069,2.92L-2.069,2.772Z" style="fill:rgb(0,130,167);fill-rule:nonzero;"/>
                    </g>
                    <g transform="matrix(1,0,0,1,283.718,148.433)">
                        <path d="M0,10.062C0,10.161 -0.066,10.209 -0.181,10.21L-1.844,10.212C-1.943,10.212 -1.993,10.18 -2.009,10.098L-2.506,8.37C-2.523,8.288 -2.571,8.272 -2.67,8.272L-5.025,8.276C-5.124,8.276 -5.173,8.291 -5.188,8.374L-5.682,10.104C-5.697,10.186 -5.763,10.219 -5.845,10.219L-7.492,10.221C-7.607,10.221 -7.673,10.172 -7.673,10.074C-7.673,10.057 -7.656,10.041 -7.656,10.007L-4.61,-0.041C-4.577,-0.125 -4.544,-0.156 -4.445,-0.157L-3.26,-0.158C-3.178,-0.159 -3.128,-0.126 -3.095,-0.042L-0.018,9.996C-0.018,10.029 0,10.044 0,10.062M-3.632,4.157C-3.648,4.058 -3.715,3.76 -3.813,3.25L-3.864,3.25C-3.979,3.761 -4.044,4.059 -4.061,4.157L-4.616,6.331C-4.616,6.348 -4.633,6.38 -4.633,6.397C-4.633,6.496 -4.566,6.544 -4.452,6.544L-3.249,6.542C-3.134,6.542 -3.069,6.494 -3.069,6.395C-3.069,6.377 -3.085,6.345 -3.085,6.329L-3.632,4.157Z" style="fill:rgb(0,130,167);fill-rule:nonzero;"/>
                    </g>
                    <g transform="matrix(1,0,0,1,294.919,148.269)">
                        <path d="M0,10.356L-5.812,10.366C-5.928,10.366 -5.978,10.317 -5.978,10.201L-5.993,0.157C-5.993,0.042 -5.944,-0.007 -5.828,-0.007L-4.265,-0.01C-4.166,-0.01 -4.101,0.039 -4.1,0.154L-4.087,8.469C-4.087,8.585 -4.037,8.633 -3.922,8.633L-0.003,8.627C0.097,8.627 0.162,8.677 0.162,8.792L0.165,10.191C0.165,10.307 0.115,10.356 0,10.356" style="fill:rgb(0,130,167);fill-rule:nonzero;"/>
                    </g>
                    <g transform="matrix(1,0,0,1,315.49,148.366)">
                        <path d="M0,10.095C0,10.161 -0.065,10.227 -0.181,10.227L-2.106,10.23L-2.239,10.149L-4.831,6.02C-4.879,5.953 -4.931,5.92 -4.963,5.921C-5.029,5.921 -5.078,5.938 -5.111,5.987L-5.768,6.861L-5.763,10.071C-5.763,10.187 -5.812,10.236 -5.928,10.237L-7.492,10.239C-7.607,10.239 -7.656,10.19 -7.656,10.074L-7.673,0.031C-7.673,-0.085 -7.624,-0.134 -7.509,-0.134L-5.943,-0.135C-5.845,-0.135 -5.778,-0.088 -5.778,0.028L-5.772,3.683C-5.772,3.798 -5.706,3.88 -5.624,3.88C-5.575,3.88 -5.525,3.847 -5.477,3.781L-2.552,-0.077L-2.42,-0.141L-0.527,-0.144C-0.413,-0.144 -0.346,-0.096 -0.346,-0.013C-0.346,0.02 -0.361,0.069 -0.395,0.118L-3.583,4.075C-3.599,4.108 -3.615,4.141 -3.615,4.158C-3.615,4.191 -3.599,4.224 -3.583,4.256L-0.034,9.98C-0.017,10.013 0,10.062 0,10.095" style="fill:rgb(0,130,167);fill-rule:nonzero;"/>
                    </g>
                    <g transform="matrix(1,0,0,1,326.644,148.212)">
                        <path d="M0,10.363L-5.814,10.373C-5.93,10.373 -5.979,10.324 -5.979,10.208L-5.994,0.164C-5.995,0.049 -5.945,0 -5.831,0L-0.017,-0.01C0.081,-0.01 0.147,0.039 0.147,0.154L0.149,1.555C0.149,1.67 0.101,1.719 -0.014,1.719L-3.933,1.725C-4.048,1.725 -4.098,1.775 -4.098,1.89L-4.095,4.08C-4.094,4.195 -4.044,4.244 -3.929,4.244L-0.719,4.238C-0.604,4.238 -0.553,4.289 -0.553,4.404L-0.551,5.803C-0.551,5.92 -0.602,5.968 -0.717,5.968L-3.927,5.973C-4.041,5.973 -4.091,6.023 -4.091,6.138L-4.088,8.476C-4.087,8.592 -4.037,8.64 -3.922,8.64L-0.003,8.634C0.095,8.634 0.161,8.684 0.161,8.8L0.163,10.198C0.163,10.314 0.114,10.363 0,10.363" style="fill:rgb(0,130,167);fill-rule:nonzero;"/>
                    </g>
                    <g transform="matrix(1,0,0,1,339.457,148.193)">
                        <path d="M0,10.363L-1.366,10.365L-1.515,10.283L-4.901,3.67L-4.809,10.205C-4.809,10.321 -4.858,10.371 -4.974,10.371L-6.504,10.373C-6.62,10.373 -6.669,10.324 -6.669,10.208L-6.685,0.164C-6.685,0.05 -6.636,0 -6.52,0L-5.137,-0.002L-4.99,0.08L-1.619,6.759L-1.696,0.156C-1.697,0.042 -1.646,-0.008 -1.531,-0.008L-0.016,-0.01C0.082,-0.01 0.148,0.039 0.148,0.153L0.164,10.198C0.164,10.313 0.115,10.363 0,10.363" style="fill:rgb(0,130,167);fill-rule:nonzero;"/>
                    </g>
                    <g transform="matrix(1,0,0,1,352.765,148.172)">
                        <path d="M0,10.362L-1.367,10.365L-1.515,10.283L-4.899,3.669L-4.809,10.205C-4.809,10.321 -4.857,10.37 -4.973,10.37L-6.504,10.373C-6.62,10.373 -6.669,10.324 -6.669,10.208L-6.685,0.164C-6.685,0.049 -6.636,-0 -6.521,-0L-5.137,-0.002L-4.989,0.079L-1.619,6.758L-1.696,0.156C-1.696,0.041 -1.646,-0.008 -1.531,-0.008L-0.016,-0.011C0.083,-0.011 0.149,0.038 0.149,0.153L0.165,10.197C0.165,10.313 0.115,10.362 0,10.362" style="fill:rgb(0,130,167);fill-rule:nonzero;"/>
                    </g>
                    <g transform="matrix(1,0,0,1,365.382,148.152)">
                        <path d="M0,10.363L-5.812,10.372C-5.927,10.373 -5.977,10.324 -5.977,10.208L-5.993,0.164C-5.993,0.049 -5.943,0 -5.828,-0.001L-0.016,-0.01C0.083,-0.01 0.148,0.039 0.148,0.154L0.15,1.554C0.15,1.67 0.102,1.718 -0.014,1.719L-3.933,1.725C-4.047,1.725 -4.097,1.774 -4.097,1.89L-4.094,4.08C-4.094,4.194 -4.043,4.244 -3.929,4.243L-0.719,4.238C-0.602,4.238 -0.552,4.289 -0.552,4.404L-0.55,5.802C-0.55,5.919 -0.599,5.968 -0.716,5.968L-3.926,5.973C-4.041,5.973 -4.091,6.022 -4.09,6.138L-4.087,8.476C-4.087,8.592 -4.036,8.64 -3.921,8.64L-0.002,8.634C0.097,8.634 0.162,8.684 0.162,8.799L0.164,10.198C0.164,10.314 0.115,10.363 0,10.363" style="fill:rgb(0,130,167);fill-rule:nonzero;"/>
                    </g>
                    <g transform="matrix(1,0,0,1,375.397,148.129)">
                        <path d="M0,10.37L-3.705,10.376C-3.82,10.376 -3.87,10.327 -3.87,10.211L-3.887,0.167C-3.887,0.052 -3.837,0.003 -3.722,0.003L-0.017,-0.003C1.859,-0.006 3.047,1.178 3.05,3.056L3.057,7.304C3.06,9.18 1.876,10.367 0,10.37M1.173,2.91C1.172,2.267 0.629,1.725 -0.014,1.726L-1.825,1.728C-1.939,1.729 -1.989,1.778 -1.989,1.894L-1.979,8.48C-1.979,8.595 -1.929,8.644 -1.814,8.643L-0.003,8.641C0.655,8.64 1.182,8.112 1.181,7.454L1.173,2.91Z" style="fill:rgb(0,130,167);fill-rule:nonzero;"/>
                    </g>
                    <g transform="matrix(1,0,0,1,388.105,152.831)">
                        <path d="M0,0.923L0.007,5.483C0.007,5.6 -0.043,5.648 -0.158,5.648L-1.722,5.651C-1.837,5.651 -1.887,5.603 -1.888,5.485L-1.895,0.926L-4.785,-4.471C-4.801,-4.519 -4.818,-4.553 -4.818,-4.586C-4.818,-4.668 -4.752,-4.717 -4.638,-4.717L-2.809,-4.72L-2.66,-4.622L-1.091,-1.397C-1.058,-1.315 -0.992,-1.283 -0.943,-1.283C-0.894,-1.283 -0.828,-1.316 -0.795,-1.398L0.764,-4.628L0.913,-4.725L2.724,-4.728C2.839,-4.728 2.904,-4.68 2.905,-4.598C2.905,-4.565 2.889,-4.532 2.872,-4.482L0,0.923Z" style="fill:rgb(0,130,167);fill-rule:nonzero;"/>
                    </g>
                    <g transform="matrix(1,0,0,1,404.719,155.701)">
                        <path d="M0,-4.872C0.001,-4.097 0.76,-3.868 1.913,-3.344C3.676,-2.539 4.5,-1.636 4.503,-0.005C4.505,1.74 3.305,2.912 1.444,2.915L0.785,2.916C-0.151,2.917 -0.861,2.654 -1.356,2.145C-1.899,1.586 -2.114,1.109 -2.115,0.943C-2.115,0.91 -2.081,0.861 -2.017,0.828L-0.584,0.119C-0.551,0.102 -0.535,0.102 -0.502,0.102C-0.388,0.102 -0.354,0.267 -0.188,0.596C-0.007,0.94 0.404,1.188 0.782,1.187L1.441,1.186C2.083,1.185 2.627,0.656 2.626,-0.002C2.624,-0.825 1.932,-1.12 0.862,-1.63C-0.951,-2.499 -1.874,-3.239 -1.877,-4.869C-1.88,-6.614 -0.663,-7.785 1.182,-7.788L1.428,-7.788C2.186,-7.789 2.778,-7.625 3.306,-7.248C3.949,-6.787 4.361,-6.048 4.361,-5.851C4.361,-5.785 4.328,-5.752 4.263,-5.719L2.832,-5.007C2.799,-4.991 2.766,-4.991 2.75,-4.991C2.667,-4.991 2.635,-5.09 2.535,-5.238C2.222,-5.764 1.942,-6.059 1.43,-6.059L1.185,-6.059C0.541,-6.058 -0.001,-5.546 0,-4.872" style="fill:rgb(0,130,167);fill-rule:nonzero;"/>
                    </g>
                    <g transform="matrix(0.999998,-0.00181241,-0.00181241,-0.999998,411.767,158.607)">
                        <path d="M-0.002,-0C-0.611,0 -1.105,0.513 -1.104,1.105C-1.104,1.714 -0.61,2.207 -0.002,2.207C0.591,2.207 1.102,1.696 1.102,1.103C1.102,0.512 0.59,-0 -0.002,-0" style="fill:rgb(0,130,167);fill-rule:nonzero;"/>
                    </g>
                    <g transform="matrix(1,0,0,1,425.813,148.212)">
                        <path d="M0,10.06C0,10.16 -0.065,10.208 -0.181,10.208L-1.844,10.211C-1.943,10.211 -1.993,10.178 -2.01,10.096L-2.506,8.369C-2.522,8.287 -2.571,8.271 -2.671,8.271L-5.025,8.274C-5.124,8.275 -5.174,8.29 -5.189,8.373L-5.681,10.102C-5.696,10.184 -5.764,10.217 -5.845,10.217L-7.493,10.22C-7.607,10.22 -7.674,10.171 -7.674,10.073C-7.674,10.055 -7.657,10.039 -7.657,10.006L-4.609,-0.042C-4.578,-0.126 -4.544,-0.158 -4.445,-0.158L-3.261,-0.16C-3.177,-0.16 -3.128,-0.128 -3.095,-0.044L-0.017,9.995C-0.017,10.028 0,10.043 0,10.06M-3.632,4.155C-3.649,4.057 -3.715,3.759 -3.814,3.249L-3.863,3.249C-3.979,3.759 -4.043,4.058 -4.061,4.156L-4.616,6.33C-4.616,6.347 -4.634,6.378 -4.634,6.396C-4.634,6.495 -4.567,6.543 -4.452,6.543L-3.25,6.541C-3.136,6.541 -3.068,6.493 -3.068,6.393C-3.068,6.376 -3.085,6.344 -3.085,6.328L-3.632,4.155Z" style="fill:rgb(0,130,167);fill-rule:nonzero;"/>
                    </g>
                    <g transform="matrix(0.999999,-0.00135931,-0.00135931,-0.999999,428.318,158.581)">
                        <path d="M-0.001,-0C-0.61,-0 -1.105,0.511 -1.104,1.103C-1.104,1.714 -0.611,2.207 -0.001,2.207C0.591,2.207 1.102,1.696 1.102,1.104C1.102,0.512 0.592,0 -0.001,-0" style="fill:rgb(0,130,167);fill-rule:nonzero;"/>
                    </g>
                    <g transform="matrix(0.999999,-0.00161352,-0.00161352,-0.999999,274.65,75.0909)">
                        <path d="M-0.01,0C-3.484,-0 -6.413,2.931 -6.412,6.406C-6.412,9.99 -3.483,13.015 -0.01,13.015C3.573,13.015 6.6,9.989 6.6,6.406C6.599,2.93 3.572,-0.001 -0.01,0" style="fill:rgb(242,139,4);fill-rule:nonzero;"/>
                    </g>
                    <g transform="matrix(1,0,0,1,54.9106,138.388)">
                        <path d="M0,-78.907C-11.606,-78.889 -22.206,-73.286 -29.381,-64.628L11.61,-64.694C15.671,-64.7 18.982,-61.449 18.988,-57.444C18.995,-53.385 15.694,-50.075 11.633,-50.069L-37.169,-49.992C-37.663,-48.295 -38.058,-46.559 -38.329,-44.786L3.152,-44.852C7.216,-44.859 10.524,-41.606 10.531,-37.605C10.537,-33.543 7.239,-30.232 3.175,-30.225L-37.747,-30.161C-37.353,-28.501 -36.853,-26.877 -36.246,-25.298L-10.879,-25.34C-6.816,-25.345 -3.507,-22.094 -3.501,-18.091C-3.495,-14.031 -6.793,-10.719 -10.856,-10.714L-26.397,-10.689C-19.387,-4.077 -10.009,0.034 0.124,0.019C21.846,-0.015 40.172,-17.831 40.139,-38.884C40.104,-60.614 21.722,-78.941 0,-78.907" style="fill:rgb(0,130,167);fill-rule:nonzero;"/>
                    </g>
                </g>
            </g>
        </g>
    </g>
</svg>
